HIERARCHY
ROOT SpineBase
{
  OFFSET 0.000000 0.000000 0.000000
  CHANNELS 6 Xposition Yposition Zposition Zrotation Xrotation Yrotation
  JOINT SpineMid
  {
    OFFSET -0.000000 32.058795 0.000000
    CHANNELS 3 Zrotation Xrotation Yrotation
    JOINT SpineShoulder
    {
      OFFSET 0.590679 23.579405 -0.912521
      CHANNELS 3 Zrotation Xrotation Yrotation
      JOINT Neck
      {
        OFFSET 0.261385 7.688037 -0.531850
        CHANNELS 3 Zrotation Xrotation Yrotation
        JOINT Head
        {
          OFFSET 4.217063 10.422220 1.999565
          CHANNELS 3 Zrotation Xrotation Yrotation
          End Site
          {
            OFFSET 0 0 0
          }
        }
      }
      JOINT ShoulderLeft
      {
        OFFSET -1.974042 -3.665549 -13.236830
        CHANNELS 3 Zrotation Xrotation Yrotation
        JOINT ElbowLeft
        {
          OFFSET 2.437873 -24.375011 -5.658848
          CHANNELS 3 Zrotation Xrotation Yrotation
          JOINT WristLeft
          {
            OFFSET 7.767543 -21.863986 1.103774
            CHANNELS 3 Zrotation Xrotation Yrotation
            JOINT HandLeft
            {
              OFFSET 0.171739 -8.887876 2.504248
              CHANNELS 3 Zrotation Xrotation Yrotation
              JOINT HandTipLeft
              {
                OFFSET 3.543593 -7.800715 -1.597012
                CHANNELS 3 Zrotation Xrotation Yrotation
                End Site
                {
                  OFFSET 0 0 0
                }
              }
              JOINT ThumbLeft
              {
                OFFSET -4.954071 0.149843 1.752185
                CHANNELS 3 Zrotation Xrotation Yrotation
                End Site
                {
                  OFFSET 0 0 0
                }
              }
            }
          }
        }
      }
      JOINT ShoulderRight
      {
        OFFSET 10.321201 -2.797251 17.222734
        CHANNELS 3 Zrotation Xrotation Yrotation
        JOINT ElbowRight
        {
          OFFSET 6.432279 -29.486987 -2.698078
          CHANNELS 3 Zrotation Xrotation Yrotation
          JOINT WristRight
          {
            OFFSET -4.060851 -22.736084 2.242143
            CHANNELS 3 Zrotation Xrotation Yrotation
            JOINT HandRight
            {
              OFFSET -0.846732 -6.640999 -1.848157
              CHANNELS 3 Zrotation Xrotation Yrotation
              JOINT HandTipRight
              {
                OFFSET -1.793197 -7.819020 2.241272
                CHANNELS 3 Zrotation Xrotation Yrotation
                End Site
                {
                  OFFSET 0 0 0
                }
              }
              JOINT ThumbRight
              {
                OFFSET -1.538415 -0.729465 0.456430
                CHANNELS 3 Zrotation Xrotation Yrotation
                End Site
                {
                  OFFSET 0 0 0
                }
              }
            }
          }
        }
      }
    }
  }
  JOINT HipLeft
  {
    OFFSET -2.696207 2.122074 -7.574591
    CHANNELS 3 Zrotation Xrotation Yrotation
    JOINT KneeLeft
    {
      OFFSET 3.283479 -41.718286 3.072036
      CHANNELS 3 Zrotation Xrotation Yrotation
      JOINT AnkleLeft
      {
        OFFSET -15.498415 -23.415323 27.675517
        CHANNELS 3 Zrotation Xrotation Yrotation
        JOINT FootLeft
        {
          OFFSET 10.359531 -3.962685 -7.141091
          CHANNELS 3 Zrotation Xrotation Yrotation
          End Site
          {
            OFFSET 0 0 0
          }
        }
      }
    }
  }
  JOINT HipRight
  {
    OFFSET 2.703875 0.568543 0.370572
    CHANNELS 3 Zrotation Xrotation Yrotation
    JOINT KneeRight
    {
      OFFSET -4.814073 -47.718644 -4.975409
      CHANNELS 3 Zrotation Xrotation Yrotation
      JOINT AnkleRight
      {
        OFFSET 0.978941 -29.422368 1.009481
        CHANNELS 3 Zrotation Xrotation Yrotation
        JOINT FootRight
        {
          OFFSET 9.918848 -3.954482 -6.810005
          CHANNELS 3 Zrotation Xrotation Yrotation
          End Site
          {
            OFFSET 0 0 0
          }
        }
      }
    }
  }
}
MOTION
Frames: 8
Frame Time: 0.033333
11.918226 82.291515 312.333555 -1.324656 -0.358203 -57.181720 0.417032 1.307331 57.172821 -0.000000 0.000000 0.000000 -1.348869 2.122251 -0.570275 0.000000 0.000000 0.000000 -0.000000 0.000000 0.000000 -1.507733 0.558887 0.130431 -2.669795 -3.966130 -1.510885 5.800447 -0.035733 -0.904456 0.000000 0.000000 0.000000 0.000000 0.000000 0.000000 -0.000000 0.000000 0.000000 -0.000000 0.000000 0.000000 -0.000000 0.000000 0.000000 -0.000000 0.000000 0.000000 0.000000 0.000000 0.000000 0.000000 0.000000 0.000000 1.184205 3.180310 57.318343 -2.210062 -1.129817 0.062736 -18.043164 -11.271371 -1.128944 0.000000 0.000000 0.000000 -1.686897 2.642042 56.996375 0.027721 -2.490330 0.249559 -0.000000 0.000000 0.000000 0.000000 0.000000 0.000000
12.441063 82.536040 312.560365 -0.990259 -0.516807 -56.330551 0.118953 1.110643 56.324931 -0.000000 0.000000 0.000000 -1.075433 2.197033 -0.657201 0.000000 0.000000 0.000000 -0.000000 0.000000 0.000000 -1.442840 0.646033 0.165595 -2.287344 -4.385509 -1.422310 5.119977 0.866474 -0.716258 0.000000 0.000000 0.000000 0.000000 0.000000 0.000000 -0.000000 0.000000 0.000000 -0.000000 0.000000 0.000000 -0.000000 0.000000 0.000000 -0.000000 0.000000 0.000000 0.000000 0.000000 0.000000 0.000000 0.000000 0.000000 -0.033748 2.650205 56.495219 -1.199572 -0.977093 -0.175505 -12.181775 -8.098036 -0.060130 0.000000 0.000000 0.000000 -2.157230 1.975860 56.203594 0.548330 -2.371763 0.193999 -0.000000 0.000000 0.000000 0.000000 0.000000 0.000000
12.376531 82.652989 312.766866 -1.387654 -0.649598 -55.280255 0.256602 1.510513 55.269005 -0.000000 0.000000 0.000000 -0.974125 2.135266 -0.654428 0.000000 0.000000 0.000000 -0.000000 0.000000 0.000000 -1.380808 0.665784 0.175648 -2.111695 -4.154984 -1.345260 4.626944 2.983572 0.349482 0.000000 0.000000 0.000000 0.000000 0.000000 0.000000 -0.000000 0.000000 0.000000 -0.000000 0.000000 0.000000 -0.000000 0.000000 0.000000 -0.000000 0.000000 0.000000 0.000000 0.000000 0.000000 0.000000 0.000000 0.000000 -0.351121 3.443593 55.512806 -1.249488 -1.595175 -0.234927 -4.769287 -3.034422 0.638565 0.000000 0.000000 0.000000 -1.827019 2.531252 55.147686 0.354092 -2.291845 0.201890 -0.000000 0.000000 0.000000 0.000000 0.000000 0.000000
12.136019 82.588844 312.788119 -1.938291 -0.539292 -54.882364 0.674320 1.895562 54.862085 0.351363 -0.793342 0.053693 -1.371521 2.755754 -0.610845 0.000000 0.000000 0.000000 -0.350653 0.793656 -0.048831 -1.325622 0.647297 0.171281 -2.025137 -4.164885 -1.296659 3.698978 1.883659 0.020043 0.000000 0.000000 0.000000 0.000000 0.000000 0.000000 -0.350653 0.793656 -0.048831 -0.000000 0.000000 0.000000 -0.000000 0.000000 0.000000 -0.000000 0.000000 0.000000 0.000000 0.000000 0.000000 0.000000 0.000000 0.000000 0.145356 4.185267 55.143410 -1.577034 -1.742257 -0.277243 -2.311799 -1.331439 0.711260 0.000000 0.000000 0.000000 -1.141831 3.163961 54.719928 0.014159 -2.213703 0.222604 -0.000000 0.000000 0.000000 0.000000 0.000000 0.000000
11.418217 82.376238 312.878296 -3.046112 -0.580338 -52.953105 1.373540 2.780313 52.904341 0.429560 -0.879675 0.062897 -1.470993 2.617359 -0.523731 0.000000 0.000000 0.000000 -0.428645 0.880121 -0.056308 -1.303132 0.637525 0.168683 -1.762211 -4.177059 -1.203240 3.095320 0.280528 -0.702570 0.000000 0.000000 0.000000 0.000000 0.000000 0.000000 -0.428645 0.880121 -0.056308 -0.000000 0.000000 0.000000 -0.000000 0.000000 0.000000 -0.000000 0.000000 0.000000 0.000000 0.000000 0.000000 0.000000 0.000000 0.000000 1.225270 6.313586 53.294024 -2.745471 -2.229810 -0.431364 -0.000000 0.000000 0.000000 0.000000 0.000000 0.000000 0.019638 4.800898 52.679401 -0.786350 -2.299913 0.298680 -0.000000 0.000000 0.000000 0.000000 0.000000 0.000000
10.422927 81.978197 312.586063 -4.374303 -0.158653 -54.610935 2.407456 3.656731 54.528014 0.341422 -0.859885 0.055394 -1.393669 2.381540 -0.431097 0.000000 0.000000 0.000000 -0.340629 0.860200 -0.050275 -1.285502 0.613137 0.160491 -1.746843 -4.239904 -1.187763 3.183770 0.037120 -0.891069 0.000000 0.000000 0.000000 0.000000 0.000000 0.000000 -0.340629 0.860200 -0.050275 -0.000000 0.000000 0.000000 -0.000000 0.000000 0.000000 -0.000000 0.000000 0.000000 0.000000 0.000000 0.000000 0.000000 0.000000 0.000000 3.643975 7.823845 54.817816 -4.117102 -1.389475 -0.463510 -3.310850 -2.088119 0.502713 0.000000 0.000000 0.000000 1.599044 6.583264 54.162984 -1.900577 -2.366989 0.397932 -0.650397 -0.211612 0.598498 0.000000 0.000000 0.000000
9.477715 81.786406 312.484245 -5.448781 -0.074600 -54.826877 2.287539 3.575264 54.708571 1.209609 -0.117011 0.050991 -1.240876 1.317640 -0.278983 0.000000 0.000000 0.000000 -0.000000 0.000000 0.000000 -1.311899 0.566465 0.142114 -1.824239 -4.439997 -1.212067 1.641889 -0.685640 -0.927486 0.000000 0.000000 0.000000 0.000000 0.000000 0.000000 -0.000000 0.000000 0.000000 -0.000000 0.000000 0.000000 -0.000000 0.000000 0.000000 -0.000000 0.000000 0.000000 0.000000 0.000000 0.000000 0.000000 0.000000 0.000000 5.207550 9.551093 54.930171 -5.352631 -1.165870 -0.542291 -15.733229 -10.460501 -0.717576 0.000000 0.000000 0.000000 2.935256 8.288850 54.171041 -2.990866 -2.340516 0.486711 -0.848599 -0.351798 0.590475 0.000000 0.000000 0.000000
8.890587 81.744959 312.414519 -5.977259 0.029822 -56.216457 2.177968 3.509588 56.083934 1.850239 -0.171228 0.078692 -1.748548 1.087189 -0.087131 0.000000 0.000000 0.000000 -0.730360 0.354606 0.207270 -0.620892 0.160312 -0.090646 -2.047948 -4.706973 -1.288256 1.099978 -1.719425 -1.322096 0.000000 0.000000 0.000000 0.000000 0.000000 0.000000 -0.000000 0.000000 0.000000 -0.000000 0.000000 0.000000 -0.000000 0.000000 0.000000 -0.000000 0.000000 0.000000 0.000000 0.000000 0.000000 0.000000 0.000000 0.000000 6.063174 10.458813 56.223263 -6.073941 -0.811930 -0.556702 -22.409510 -14.654481 -2.129193 0.000000 0.000000 0.000000 3.371386 9.485131 55.422540 -4.630951 -3.218435 0.468028 -0.077475 0.210676 0.636399 0.000000 0.000000 0.000000
